<svg height="200px" width="200px" version="1.1" id="Layer_1" xmlns="http://www.w3.org/2000/svg" xmlns:xlink="http://www.w3.org/1999/xlink" viewBox="0 0 512 512" xml:space="preserve" fill="#000000"><g id="SVGRepo_bgCarrier" stroke-width="0"></g><g id="SVGRepo_tracerCarrier" stroke-linecap="round" stroke-linejoin="round"></g><g id="SVGRepo_iconCarrier"> <g> <circle style="fill:#2C5871;" cx="256" cy="256" r="256"></circle> <path style="fill:#153040;" d="M507.028,306.299L391.834,191.79l0.476-0.522l-0.476-0.333l0,0l-67.968-47.862H189.814l0,0l0,0 l-22.825,16.072l-45.143,31.79l0,0l-0.476,0.333l60.57,66.237h-62.74l-35.005,24.653l0,0l-0.246,0.174l69.77,76.303l0.123-0.133 l149.018,149.146C405.509,488.643,486.671,408.463,507.028,306.299z"></path> <polygon style="fill:#D7ECED;" points="188.242,257.505 153.723,257.505 119.199,257.505 83.953,282.332 153.723,358.63 223.493,282.332 "></polygon> <polygon style="fill:#15B0BF;" points="84.193,282.158 223.247,282.158 188.242,257.505 153.723,257.505 119.199,257.505 "></polygon> <polygon style="fill:#FFFFFF;" points="153.723,358.63 120.438,282.158 153.723,282.158 "></polygon> <polygon style="fill:#FFFFFF;" points="187.008,282.158 153.723,358.63 223.493,282.332 "></polygon> <polygon style="fill:#D7ECED;" points="223.493,282.332 187.008,282.158 169.062,257.505 188.242,257.505 "></polygon> <polygon style="fill:#D7ECED;" points="153.723,282.158 120.438,282.158 134.502,257.628 153.723,257.505 "></polygon> <polygon style="fill:#D7ECED;" points="390.917,257.505 356.398,257.505 321.874,257.505 286.628,282.332 356.398,358.63 426.168,282.332 "></polygon> <polygon style="fill:#15B0BF;" points="286.868,282.158 425.923,282.158 390.917,257.505 356.398,257.505 321.874,257.505 "></polygon> <polygon style="fill:#FFFFFF;" points="356.398,358.63 323.113,282.158 356.398,282.158 "></polygon> <polygon style="fill:#FFFFFF;" points="389.683,282.158 356.398,358.63 426.168,282.332 "></polygon> <polygon style="fill:#D7ECED;" points="426.168,282.332 389.683,282.158 371.738,257.505 390.917,257.505 "></polygon> <polygon style="fill:#D7ECED;" points="356.398,282.158 323.113,282.158 337.178,257.628 356.398,257.505 "></polygon> <polygon style="fill:#D7ECED;" points="323.871,143.068 256.84,143.068 189.814,143.068 121.375,191.268 256.84,339.415 392.31,191.268 "></polygon> <polygon style="fill:#15B0BF;" points="121.851,190.935 391.834,190.935 323.871,143.068 256.84,143.068 189.814,143.068 "></polygon> <polygon style="fill:#FFFFFF;" points="256.84,339.415 192.215,190.935 256.84,190.935 "></polygon> <polygon style="fill:#FFFFFF;" points="321.464,190.935 256.84,339.415 392.31,191.268 "></polygon> <polygon style="fill:#D7ECED;" points="392.31,191.268 321.464,190.935 286.628,143.068 323.871,143.068 "></polygon> <polygon style="fill:#D7ECED;" points="256.84,190.935 192.215,190.935 219.525,143.309 256.84,143.068 "></polygon> </g> </g></svg>